HIERARCHY
ROOT Hips
{
	OFFSET 0.000000 8.830580 0.000000
	CHANNELS 6 Xposition Yposition Zposition Zrotation Yrotation Xrotation 
	JOINT Spine
	{
		OFFSET 0.000000 0.010000 0.000000
		CHANNELS 3 Zrotation Yrotation Xrotation
		JOINT Spine1
		{
			OFFSET 0.000000 2.459130 0.000000
			CHANNELS 3 Zrotation Yrotation Xrotation
			JOINT Neck
			{
				OFFSET 0.000000 2.484630 0.000000
				CHANNELS 3 Zrotation Yrotation Xrotation
				JOINT Head_virtual
				{
					OFFSET 0.000000 0.000000 0.000000
					CHANNELS 3 Zrotation Yrotation Xrotation
					JOINT Head
					{
						OFFSET 0.000000 0.927525 0.000000
						CHANNELS 3 Zrotation Yrotation Xrotation
						End Site
						{
							OFFSET 0.000000 0.000000 0.000000
						}
					}
				}
				JOINT LeftUpArm_virtual
				{
					OFFSET 0.000000 0.000000 0.000000
					CHANNELS 3 Zrotation Yrotation Xrotation
					JOINT LeftUpArm
					{
						OFFSET 1.248820 0.000000 0.000000
						CHANNELS 3 Zrotation Yrotation Xrotation
						JOINT LeftForeArm
						{
							OFFSET 2.597580 0.000000 0.000000
							CHANNELS 3 Zrotation Yrotation Xrotation
							JOINT LeftHand
							{
								OFFSET 2.455420 0.000000 0.000000
								CHANNELS 3 Zrotation Yrotation Xrotation
								End Site
								{
									OFFSET 0.000000 0.000000 0.000000
								}
							}
						}
					}
				}
				JOINT RightUpArm_virtual
				{
					OFFSET -0.000000 -0.000000 -0.000000
					CHANNELS 3 Zrotation Yrotation Xrotation
					JOINT RightUpArm
					{
						OFFSET -1.248820 -0.000000 -0.000000
						CHANNELS 3 Zrotation Yrotation Xrotation
						JOINT RightForeArm
						{
							OFFSET -2.597580 -0.000000 -0.000000
							CHANNELS 3 Zrotation Yrotation Xrotation
							JOINT RightHand
							{
								OFFSET -2.455420 -0.000000 -0.000000
								CHANNELS 3 Zrotation Yrotation Xrotation
								End Site
								{
									OFFSET 0.000000 0.000000 0.000000
								}
							}
						}
					}
				}
			}
		}
	}
	JOINT LeftUpLeg
	{
		OFFSET 1.271939 0.000000 0.000000
		CHANNELS 3 Zrotation Yrotation Xrotation
		JOINT LeftLowLeg
		{
			OFFSET 0.000000 -4.342910 0.000000
			CHANNELS 3 Zrotation Yrotation Xrotation
			JOINT LeftFoot
			{
				OFFSET 0.000000 -4.487670 0.000000
				CHANNELS 3 Zrotation Yrotation Xrotation
				JOINT LeftToeBase
				{
					OFFSET 0.000000 0.000000 1.515070
					CHANNELS 3 Zrotation Yrotation Xrotation
					End Site
					{
						OFFSET 0.000000 0.000000 0.000000
					}
				}
			}
		}
	}
	JOINT RightUpLeg
	{
		OFFSET -1.271939 0.000000 0.000000
		CHANNELS 3 Zrotation Yrotation Xrotation
		JOINT RightLowLeg
		{
			OFFSET 0.000000 -4.342910 0.000000
			CHANNELS 3 Zrotation Yrotation Xrotation
			JOINT RightFoot
			{
				OFFSET 0.000000 -4.487670 0.000000
				CHANNELS 3 Zrotation Yrotation Xrotation
				JOINT RightToeBase
				{
					OFFSET 0.000000 0.000000 1.515070
					CHANNELS 3 Zrotation Yrotation Xrotation
					End Site
					{
						OFFSET 0.000000 0.000000 0.000000
					}
				}
			}
		}
	}
}
MOTION
Frames: 10
Frame Time: 0.041667
-11.785920 9.304689 28.767488 -172.101859 -38.976757 175.209645 1.095370 -3.836048 -9.195901 7.996178 -3.537271 17.538092 0.000000 0.000000 0.000000 -24.399966 20.990225 -4.597781 -2.892256 -4.180963 -42.564981 -15.333400 -3.705720 3.996770 -61.522202 -32.866402 71.983398 -180.000000 -76.091003 -180.000000 2.549510 21.827999 -26.073601 20.323500 -1.769840 8.643630 42.975498 15.954100 16.634501 0.000000 28.239000 0.000000 -18.079399 -4.230730 -7.048540 -1.635519 1.817829 -2.507673 0.000000 0.000000 10.721900 17.332310 3.955567 6.837475 0.000000 0.000000 -36.667299 3.991093 0.446338 -17.678353 0.000000 0.000000 54.855400 14.230691 -10.278201 11.570017 0.000000 0.000000 -28.005400 
-11.848396 9.304609 28.710828 -171.747241 -39.907151 175.076451 1.215264 -4.008377 -9.275900 7.981055 -3.756015 17.746983 0.000000 0.000000 0.000000 -24.437918 20.966132 -4.887074 -2.847894 -4.328634 -42.376134 -15.395700 -3.605680 3.912840 -61.353100 -32.848801 71.811501 180.000000 -75.785004 -180.000000 2.157780 21.813101 -26.439501 20.306499 -1.946300 8.404460 42.993000 15.005600 17.358801 0.000000 28.071899 0.000000 -17.392500 -4.195570 -8.062100 -1.510467 1.387539 -2.373946 0.000000 0.000000 11.071900 17.542452 3.784130 6.311827 0.000000 0.000000 -36.716900 4.103394 1.111769 -18.299168 0.000000 0.000000 52.105598 12.897029 -11.045254 10.357274 0.000000 0.000000 -27.565900 
-11.903850 9.302432 28.660583 -171.658847 -40.566817 175.141340 1.172359 -4.021077 -9.147401 8.038346 -3.751583 17.704590 0.000000 0.000000 0.000000 -24.608450 21.016216 -5.097007 -2.550574 -4.553774 -42.268683 -15.514800 -3.617940 4.236790 -61.079899 -32.953098 71.406998 -180.000000 -75.442001 180.000000 2.512460 22.330200 -26.445200 20.248301 -2.191540 8.221590 43.040600 14.145200 18.197500 0.000000 27.902000 0.000000 -17.169399 -4.239740 -8.360060 -1.538657 1.738914 -2.399876 0.000000 0.000000 11.614400 17.846823 3.208970 5.744147 0.000000 0.000000 -37.016399 3.950894 2.093468 -19.043700 0.000000 0.000000 49.221001 12.100619 -11.676155 9.733237 0.000000 0.000000 -27.317000 
-11.962639 9.301016 28.602275 -171.369323 -41.522460 174.993194 1.230447 -4.165344 -9.130754 8.074806 -3.917338 17.831656 0.000000 0.000000 0.000000 -24.482269 20.866791 -5.281372 -2.580636 -4.656950 -42.042440 -15.541600 -3.551980 4.219540 -61.015202 -32.931702 71.251198 -180.000000 -75.278000 -180.000000 2.642330 22.851299 -26.536699 20.202801 -2.379210 8.127240 43.012901 13.335200 19.211100 0.000000 27.807199 0.000000 -17.897200 -4.190490 -5.557980 -1.453133 0.214977 -2.036124 0.000000 0.000000 11.615000 17.756780 3.745075 5.535367 0.000000 0.000000 -36.846901 3.882597 2.753424 -19.393985 0.000000 0.000000 45.864601 11.640081 -12.121352 9.436095 0.000000 0.000000 -27.262200 
-12.015747 9.298039 28.550847 -171.340715 -42.192236 175.083260 1.172992 -4.119914 -8.971293 8.173397 -3.854018 17.823454 0.000000 0.000000 0.000000 -24.544080 20.796302 -5.546605 -2.378798 -4.925623 -41.894133 -15.549000 -3.469300 4.191530 -61.102699 -32.917599 71.132599 180.000000 -75.292999 -180.000000 4.241010 22.274799 -24.054501 20.122601 -2.674830 8.015320 42.951000 12.655900 20.376699 0.000000 27.755501 0.000000 -17.791599 -4.107840 -5.211990 -1.518217 -0.004411 -1.854250 0.000000 0.000000 11.781100 17.899250 3.573003 5.184004 0.000000 0.000000 -36.965900 3.553755 3.754034 -19.937689 0.000000 0.000000 42.597801 10.894816 -12.286663 9.558970 0.000000 0.000000 -27.337700 
-12.069461 9.294214 28.498233 -171.260799 -42.926546 175.172591 1.236404 -4.107253 -8.827020 8.114064 -3.851231 17.719937 0.000000 0.000000 0.000000 -24.560493 20.744689 -5.680480 -2.143116 -5.102409 -41.883069 -15.506600 -3.366500 4.107960 -61.082001 -32.790501 70.942398 180.000000 -75.141998 -180.000000 4.936860 22.531000 -23.063200 20.113001 -2.805790 7.968740 42.841702 11.867900 21.457500 0.000000 27.823000 0.000000 -17.532000 -3.867420 -4.944980 -1.558100 -0.725060 -1.629010 0.000000 0.000000 11.819600 17.943934 3.727131 4.897484 0.000000 0.000000 -36.914900 3.199234 4.558705 -20.423781 0.000000 0.000000 39.240398 10.724689 -11.765490 9.852650 0.000000 0.000000 -27.658200 
-12.120714 9.290585 28.443485 -171.197133 -43.688324 175.345423 1.244550 -4.100564 -8.799133 8.164941 -3.844830 17.724712 0.000000 0.000000 0.000000 -24.568311 20.652608 -5.908324 -1.999339 -5.329013 -41.796208 -15.529200 -3.202380 4.295680 -60.926601 -33.075901 70.582298 180.000000 -74.967003 -180.000000 5.610560 23.185400 -23.160400 20.048901 -2.912150 8.034730 42.763500 11.225400 22.270201 0.000000 27.879601 0.000000 -17.493299 -3.405100 -5.352850 -1.567368 -1.045851 -1.522854 0.000000 0.000000 11.891200 17.461492 3.378203 4.383231 0.000000 0.000000 -36.666599 2.814789 5.252032 -20.918013 0.000000 0.000000 35.868301 10.153151 -10.936866 10.230585 0.000000 0.000000 -27.682300 
-12.173090 9.287155 28.389187 -171.129291 -44.434458 175.503988 1.293690 -4.097091 -8.749144 8.267847 -3.846019 17.697570 0.000000 0.000000 0.000000 -24.680780 20.621623 -6.077937 -1.836902 -5.565738 -41.759013 -15.432500 -3.317900 3.747040 -60.997799 -32.346001 70.388199 180.000000 -74.686996 -180.000000 6.423470 23.688101 -22.209299 19.979900 -3.041100 8.162330 42.673302 10.683000 22.429701 0.000000 28.009899 0.000000 -17.174101 -2.949970 -5.414590 -1.571111 -1.372694 -1.393930 0.000000 0.000000 11.957500 16.948083 2.991739 3.919450 0.000000 0.000000 -36.444000 2.431181 5.784948 -21.307768 0.000000 0.000000 32.404400 9.928090 -9.788795 10.855773 0.000000 0.000000 -27.965300 
-12.224512 9.283550 28.333901 -171.087109 -45.170451 175.696645 1.347802 -4.067585 -8.714611 8.339608 -3.823393 17.661599 0.000000 0.000000 0.000000 -24.663101 20.540653 -6.236290 -1.775321 -5.712866 -41.664940 -15.451000 -3.169630 3.498340 -60.881802 -32.199001 70.201401 -180.000000 -74.463997 180.000000 7.100350 24.046900 -21.360901 19.927099 -3.191670 8.287740 42.725498 10.206000 21.849100 0.000000 28.093901 0.000000 -16.933800 -2.561200 -5.554270 -1.567595 -1.855560 -1.276359 0.000000 0.000000 12.096200 18.326180 3.232060 3.962813 0.000000 0.000000 -37.322001 2.017676 6.347553 -21.642906 0.000000 0.000000 28.905199 9.485277 -8.636666 11.624524 0.000000 0.000000 -28.004100 
-12.277102 9.279986 28.275170 -171.006762 -45.920012 175.822913 1.450326 -4.069554 -8.689749 8.385354 -3.847573 17.658706 0.000000 0.000000 0.000000 -24.609985 20.469448 -6.354270 -1.845889 -5.773988 -41.606229 -15.438600 -3.026050 3.435960 -60.664200 -32.096298 69.746597 -180.000000 -74.210999 180.000000 7.536210 24.372700 -20.739300 19.923000 -3.352390 8.153750 42.739101 9.727610 21.381800 0.000000 28.155399 0.000000 -16.755100 -2.539810 -6.197340 -1.522469 -2.272450 -1.089147 0.000000 0.000000 12.155500 18.497303 3.134989 3.650371 0.000000 0.000000 -37.750799 1.641130 6.951688 -21.826295 0.000000 0.000000 25.329901 9.067323 -7.556118 12.700442 0.000000 0.000000 -27.884100 
